<svg id="Layer_1" data-name="Layer 1" xmlns="http://www.w3.org/2000/svg" viewBox="0 0 317.39 463.04"><defs><style>.cls-1{fill:#0e3f69;}.cls-2{fill:none;stroke:#fff;stroke-miterlimit:10;}.cls-3{fill:#fff;}.cls-4{isolation:isolate;}</style></defs><rect class="cls-1" width="317.39" height="463.04"/><path class="cls-2" d="M87.59,155.39" transform="translate(11.62 6.52)"/><polygon class="cls-3" points="46.67 312.95 46.67 211.34 87.73 211.34 87.73 166.33 94.43 166.33 94.43 166.81 88.11 166.81 88.11 211.81 47.05 211.81 47.05 312.48 135.99 311.53 237.06 311.53 269.14 308.61 270.36 193.32 237.57 158.14 237.81 157.78 270.74 193.1 270.74 193.21 269.52 309.05 237.08 312 135.99 312 46.67 312.95"/><path class="cls-2" d="M186,151.19" transform="translate(11.62 6.52)"/><polygon class="cls-3" points="137.04 167.04 136.66 167.03 136.79 157.09 161.69 157.25 161.69 157.72 137.17 157.57 137.04 167.04"/><path class="cls-2" d="M119.32,156.16" transform="translate(11.62 6.52)"/><path class="cls-2" d="M93.38,151.6" transform="translate(11.62 6.52)"/><path class="cls-2" d="M87.84,164.88" transform="translate(11.62 6.52)"/><path class="cls-2" d="M94.26,160.13" transform="translate(11.62 6.52)"/><path class="cls-2" d="M97.91,158.39" transform="translate(11.62 6.52)"/><path class="cls-2" d="M102.76,158.39" transform="translate(11.62 6.52)"/><path class="cls-2" d="M108.62,159.19" transform="translate(11.62 6.52)"/><path class="cls-2" d="M115.15,162.5" transform="translate(11.62 6.52)"/><path class="cls-2" d="M118.18,164.72" transform="translate(11.62 6.52)"/><polygon class="cls-3" points="135.28 291.45 93.48 291.45 93.49 291.21 94.3 181.86 94.68 181.87 93.87 290.98 134.9 290.98 134.9 181.51 135.28 181.51 135.28 291.45"/><path class="cls-3" d="M166.52,284.93H146.88l.62-112.23h19Zm-19.26-.47h18.88V173.18H147.87Z" transform="translate(11.62 6.52)"/><path class="cls-3" d="M198.47,284.46h-24V172.22h24ZM174.81,284h23.28V172.7H174.81Z" transform="translate(11.62 6.52)"/><path class="cls-3" d="M225.71,284.54l-19.33-.33V284l1.25-111.82,18.62.32v.24Zm-19-.8,18.57.32.54-111.12L208,172.63Z" transform="translate(11.62 6.52)"/><path class="cls-3" d="M234.88,284.54h-9.55v-.24l.57-112.14,9.67,9v.13Zm-9.17-.47h8.79l.69-102.64-8.92-8.33Z" transform="translate(11.62 6.52)"/><path class="cls-3" d="M239,284.67v-.24l.33-98.54,7.52,7.43v.12l-.8,91Zm.72-97.81-.34,97.32,6.31-.19.79-90.44Z" transform="translate(11.62 6.52)"/><path class="cls-3" d="M249.29,284.36l.25-88,8.35,8.27-.75,79.47Zm.63-87.07-.25,86.58,7.1-.27.74-78.78Z" transform="translate(11.62 6.52)"/><path class="cls-3" d="M50.73,250.73H35V233.87h15.7Zm-15.32-.47H50.35V234.35H35.41Z" transform="translate(11.62 6.52)"/><path class="cls-3" d="M50.73,284.93H35V268.07h15.7Zm-15.32-.48H50.35V268.54H35.41Z" transform="translate(11.62 6.52)"/><polygon class="cls-3" points="237.25 311.76 236.87 311.76 237.5 157.96 237.88 157.96 237.25 311.76"/><path class="cls-3" d="M83,175.51l-.38,0c.27-4,1.33-9.6,4.93-14s8.6-6.38,15.17-6.34c15.26.07,20.8,10.88,20.91,20.12h-.37c-.11-9-5.55-19.58-20.54-19.65C97.25,155.61,84.24,157.48,83,175.51Z" transform="translate(11.62 6.52)"/><path class="cls-3" d="M125.12,160.49c-3.93-7.24-9.25-14-21.52-14.1-9.73-.11-16.53,4.42-20.8,13.86l-.33-.24c4.34-9.6,11.26-14.2,21.13-14.1,12.44.15,17.84,7,21.83,14.32Z" transform="translate(11.62 6.52)"/><g class="cls-4"><g class="cls-4"><path class="cls-2" d="M149.75,158.34V144.57h-2.38v-.88h5.52v.88h-2.37v13.77Z" transform="translate(11.62 6.52)"/><path class="cls-2" d="M156.65,143.69c1.78,0,2.5,1.24,2.5,3.31v1.27c0,1.72-.53,2.7-1.68,3,1.2.33,1.68,1.4,1.68,3v2.28a4,4,0,0,0,.28,1.76h-.8a4.23,4.23,0,0,1-.25-1.76v-2.3c0-1.95-.85-2.49-2.18-2.49H155v6.55h-.76V143.69Zm-.43,7.22c1.36,0,2.16-.48,2.16-2.45v-1.38c0-1.57-.48-2.51-1.75-2.51H155v6.34Z" transform="translate(11.62 6.52)"/><path class="cls-2" d="M162.1,155.09l-.59,3.25h-.7l2.55-14.67h1.12l2.6,14.67h-.77l-.58-3.25Zm.11-.83h3.4l-1.71-9.48Z" transform="translate(11.62 6.52)"/><path class="cls-2" d="M171,143.69c1.8,0,2.5,1.43,2.5,3.56v1.59c0,2.32-.85,3.47-2.7,3.47h-1.45v6h-.76V143.69Zm-.2,7.74c1.35,0,1.93-.75,1.93-2.53v-1.71c0-1.59-.43-2.62-1.73-2.62h-1.65v6.86Z" transform="translate(11.62 6.52)"/><path class="cls-2" d="M175.74,151.45v6.89H175V143.69h.77v6.89h3.63v-6.89h.78v14.65h-.78v-6.89Z" transform="translate(11.62 6.52)"/><path class="cls-2" d="M181.77,147.27c0-2.13.78-3.7,2.55-3.7s2.58,1.57,2.58,3.7v7.49c0,2.13-.79,3.7-2.58,3.7s-2.55-1.57-2.55-3.7Zm.76,7.55c0,1.59.5,2.76,1.79,2.76s1.81-1.17,1.81-2.76v-7.61c0-1.59-.52-2.76-1.81-2.76s-1.79,1.17-1.79,2.76Z" transform="translate(11.62 6.52)"/></g><g class="cls-4"><path class="cls-2" d="M188.19,158.34V143.69H189v13.77h3.67v.88Z" transform="translate(11.62 6.52)"/></g><g class="cls-4"><path class="cls-2" d="M195.19,158.34V144.57h-2.36v-.88h5.51v.88H196v13.77Z" transform="translate(11.62 6.52)"/></g></g><path class="cls-2" d="M149.7,150.81" transform="translate(11.62 6.52)"/><polygon class="cls-3" points="237.68 158.2 207.05 157.56 207.06 157.09 237.69 157.72 237.68 158.2"/></svg>