<svg id="Lag_1" data-name="Lag 1" xmlns="http://www.w3.org/2000/svg" viewBox="0 0 617.54 617.54"><defs><style>.cls-1{fill:#0e3f69;}</style></defs><rect class="cls-1" x="307.27" y="363.84" width="3" height="252.19"/><rect class="cls-1" x="307.27" y="1.5" width="3" height="251.49"/><path class="cls-1" d="M729.1,595.28" transform="translate(-112.18 -286.51)"/><rect class="cls-1" x="226.06" y="307.27" width="28.71" height="3"/><rect class="cls-1" x="1.5" y="307.27" width="211.17" height="3"/><polygon class="cls-1" points="275.29 138.52 226.32 83.54 226.22 83.3 201.25 21.67 204.03 20.54 228.91 81.93 273.93 132.48 292.83 67.69 290.58 2.76 293.58 2.65 295.85 68.07 275.29 138.52"/><rect class="cls-1" x="397.69" y="420.73" width="3" height="121.52" transform="translate(-202.08 -194.85) rotate(-11.78)"/><rect class="cls-1" x="361.41" y="293.8" width="3" height="33.58" transform="translate(-165.51 -210.25) rotate(-11.18)"/><rect class="cls-1" x="350.4" y="301.6" width="3" height="252.56" transform="translate(-252.45 -112.96) rotate(-23.24)"/><polygon class="cls-1" points="211.87 164.36 145.68 130.51 145.5 130.33 100.22 83.15 102.39 81.07 147.49 128.07 208.33 159.18 201.65 92.33 174.67 32.18 177.4 30.96 204.58 91.55 204.61 91.79 211.87 164.36"/><rect class="cls-1" x="355.54" y="437.46" width="3" height="122.52" transform="translate(-332.15 4.25) rotate(-34.58)"/><rect class="cls-1" x="291.45" y="341.12" width="3" height="252.99" transform="translate(-358.8 65.6) rotate(-45.85)"/><polygon class="cls-1" points="163.14 212.73 89.64 207.7 29.47 180.54 30.7 177.81 90.38 204.74 157.85 209.36 124.71 149.45 78.55 105.18 80.63 103.01 127.11 147.6 127.22 147.8 163.14 212.73"/><rect class="cls-1" x="323.03" y="469.31" width="3" height="123.47" transform="translate(-409.81 229.05) rotate(-57.14)"/><rect class="cls-1" x="252.33" y="399.93" width="3" height="253.36" transform="translate(-441.6 279.7) rotate(-68.15)"/><polygon class="cls-1" points="67.44 297.73 1.77 296.94 1.8 293.94 66.99 294.73 131.72 273.71 79.43 231.98 18.26 208.27 19.34 205.48 80.94 229.35 137.95 274.85 67.44 297.73"/><rect class="cls-1" x="306.09" y="510.84" width="3" height="123.42" transform="matrix(0.19, -0.98, 0.98, 0.19, -425.27, 478.87)"/><polygon class="cls-1" points="20.55 415.4 19.44 412.61 79.74 388.59 133.11 344.35 68.13 326.33 2.05 328.1 1.97 325.1 68.49 323.32 68.71 323.38 139.44 342.99 81.29 391.2 81.07 391.29 20.55 415.4"/><rect class="cls-1" x="247.27" y="616.71" width="122.08" height="3" transform="translate(-227.36 -214.09) rotate(-11.3)"/><rect class="cls-1" x="127.6" y="663.52" width="253.36" height="3" transform="translate(-349.79 -136.22) rotate(-22.77)"/><polygon class="cls-1" points="82.87 517.03 80.82 514.85 128.85 469.67 160.04 409.85 93.53 416.69 32.06 442.69 30.9 439.93 92.78 413.75 93 413.73 165.27 406.3 131.28 471.51 82.87 517.03"/><rect class="cls-1" x="264.34" y="658.79" width="122.53" height="3" transform="translate(-425.91 8.75) rotate(-34.03)"/><rect class="cls-1" x="167.71" y="722.69" width="252.96" height="3" transform="translate(-539.55 137.11) rotate(-45.28)"/><polygon class="cls-1" points="179.92 587.76 177.17 586.55 203.42 527.19 209.94 459.11 151.27 490.76 104.77 538.63 102.61 536.54 149.44 488.33 213.47 453.8 206.36 527.96 179.92 587.76"/><rect class="cls-1" x="296.68" y="690.63" width="122.19" height="3" transform="translate(-528.75 319.38) rotate(-56.31)"/><rect class="cls-1" x="227.39" y="761.89" width="252.54" height="3" transform="translate(-599.08 513.09) rotate(-67.61)"/><polygon class="cls-1" points="294.29 615.82 291.29 615.62 295.49 552.69 274.9 486.68 231.58 540.19 208 599.2 205.22 598.09 228.96 538.66 229.11 538.48 276.1 480.44 298.52 552.33 294.29 615.82"/><rect class="cls-1" x="338.13" y="708.31" width="122.84" height="3" transform="translate(-486.3 678.06) rotate(-78.85)"/><polygon class="cls-1" points="324.13 615.62 322.54 549.43 344.28 480.49 391.65 537.33 414.85 597.2 412.06 598.28 389.03 538.87 345.49 486.63 325.56 549.85 327.13 615.54 324.13 615.62"/><rect class="cls-1" x="443.27" y="648.49" width="3" height="122.82" transform="translate(-245.35 -183.04) rotate(-11.55)"/><rect class="cls-1" x="491.4" y="636.38" width="3" height="251.4" transform="translate(-366.42 -39.69) rotate(-22.51)"/><polygon class="cls-1" points="440.51 586.39 414.58 527.95 408.34 455.01 473.72 489.66 473.89 489.84 516.88 534.78 514.72 536.86 471.89 492.09 411.8 460.24 417.52 527.19 443.26 585.17 440.51 586.39"/><rect class="cls-1" x="486.02" y="630.94" width="3" height="123.84" transform="translate(-416.87 106.12) rotate(-34.11)"/><rect class="cls-1" x="549.08" y="597.39" width="3" height="250.84" transform="translate(-462.02 314.54) rotate(-45)"/><polygon class="cls-1" points="536 515.54 489.98 471.83 489.86 471.59 456.49 404.56 527.48 412.48 587.25 438.69 586.05 441.43 526.7 415.41 461.63 408.15 492.43 470.02 538.07 513.37 536 515.54"/><rect class="cls-1" x="518.6" y="597.81" width="3" height="122.57" transform="translate(-428.67 443.42) rotate(-56.56)"/><rect class="cls-1" x="588.2" y="538.27" width="3" height="250.6" transform="translate(-362.11 665.3) rotate(-67.32)"/><polygon class="cls-1" points="597.82 413.09 538.09 389.54 537.9 389.38 482.17 342.17 552.2 320.21 552.46 320.22 615.71 322.89 615.58 325.89 552.59 323.23 488.27 343.4 539.65 386.93 598.92 410.3 597.82 413.09"/><rect class="cls-1" x="495.22" y="589.51" width="3" height="40.62" transform="translate(-308.49 695.23) rotate(-79.06)"/><rect class="cls-1" x="564.96" y="591.8" width="3" height="63.02" transform="translate(-265.23 774.62) rotate(-79.06)"/><polygon class="cls-1" points="550.22 295.74 482.16 274.45 538.1 227.52 597.82 204.41 598.9 207.21 539.64 230.14 488.29 273.22 550.65 292.73 615.62 291.65 615.67 294.65 550.22 295.74"/><line class="cls-1" x1="395.9" y1="291.67" x2="364.6" y2="298.08"/><rect class="cls-1" x="476.46" y="579.88" width="31.94" height="3" transform="translate(-218.76 -175.95) rotate(-11.57)"/><rect class="cls-1" x="463.76" y="523.89" width="250.59" height="3" transform="translate(-268.28 -21.44) rotate(-22.47)"/><polygon class="cls-1" points="456.51 209.73 488.88 145.45 489.07 145.27 535.53 101.46 537.59 103.64 491.32 147.27 461.61 206.26 527.64 200.31 585.84 175.63 587.02 178.39 528.38 203.26 528.14 203.28 456.51 209.73"/><rect class="cls-1" x="457.44" y="527.64" width="124.34" height="3" transform="translate(-318.89 92.82) rotate(-33.87)"/><rect class="cls-1" x="423.91" y="464.99" width="250.85" height="3" transform="translate(-280.77 243.02) rotate(-45.36)"/><polygon class="cls-1" points="405.72 162.49 411.47 90.39 411.58 90.16 438.26 30.07 441.01 31.29 414.42 91.14 409.15 157.28 469.68 125.2 513.65 79.7 515.8 81.78 471.5 127.63 471.29 127.74 405.72 162.49"/><rect class="cls-1" x="425.14" y="496.27" width="122.41" height="3" transform="matrix(0.54, -0.84, 0.84, 0.54, -308.02, 348.82)"/><rect class="cls-1" x="364.98" y="426.05" width="251.4" height="3" transform="translate(-202.78 433.74) rotate(-67.79)"/><polygon class="cls-1" points="343.42 136.33 321 67.46 321 1.8 324 1.8 324 66.98 344.59 130.24 387.25 79.09 409.61 18.41 412.43 19.44 389.88 80.62 343.42 136.33"/><rect class="cls-1" x="382.62" y="478.79" width="123.32" height="3" transform="translate(-224.92 536.99) rotate(-78.87)"/><rect class="cls-1" x="135.09" y="522.73" width="3" height="35.46" transform="translate(-531.71 292.62) rotate(-79.79)"/><circle class="cls-1" cx="46.84" cy="258.43" r="7.31"/><circle class="cls-1" cx="255.47" cy="46.49" r="7.31"/><circle class="cls-1" cx="572.99" cy="360.15" r="7.31"/><circle class="cls-1" cx="362.51" cy="571.69" r="7.31"/><path class="cls-1" d="M197.9,568.83l-12.3,0,0-10.7,36.38.14,0,10.7-12.31,0-.25,64.2L197.65,633Z" transform="translate(-112.18 -286.51)"/><path class="cls-1" d="M209.92,633.58l-12.77-.05.25-64.2-12.3-.05,0-11.7,37.38.15-.05,11.7-12.3,0Zm-11.76-1.05,10.77,0,.24-64.19,12.31,0,0-9.7-35.38-.14,0,9.7,12.3.05Z" transform="translate(-112.18 -286.51)"/><path class="cls-1" d="M249.09,558.33l17.44.07c12.2.05,17.42,5.74,17.37,17.29v4.61c0,7.7-2.51,12.61-7.77,14.73v.21c5.88,1.85,7.79,7.42,7.75,15.87l-.05,13.16c0,3.64.08,6.31,1.25,9.1l-12,0c-.64-1.93-1.06-3.1-1-9.2l.06-13.7c0-6.95-2-9.21-7.35-9.23h-4.07l-.12,32.09-11.77,0ZM265,590.49c4.39,0,7.07-1.89,7.1-7.89l0-5.77c0-5.35-1.79-7.72-6-7.73l-5.35,0-.09,21.4Z" transform="translate(-112.18 -286.51)"/><path class="cls-1" d="M285.82,633.87l-13.1,0-.14-.44c-.63-1.92-1.05-3.19-1-9.26l.06-13.7c0-6.51-1.71-8.71-6.85-8.73h-3.57l-.12,32.1-12.77,0,.29-75.9,17.94.07c12.24.05,17.92,5.7,17.87,17.8v4.6c0,7.59-2.39,12.44-7.19,14.8,5,2,7.21,7,7.17,16l-.05,13.16c0,3.49.07,6.17,1.21,8.91Zm-12.37-1,10.89,0c-1-2.67-1-5.28-1-8.6l.05-13.16c0-9-2.24-13.77-7.4-15.39l-.35-.11v-.92l.31-.12c5-2,7.42-6.68,7.45-14.28v-4.6c.05-11.57-5.16-16.74-16.87-16.79l-16.94-.07-.29,73.9,10.77,0,.13-32.1,4.56,0c5.75,0,7.87,2.66,7.85,9.73l-.06,13.7C272.53,629.77,272.89,631.12,273.45,632.82ZM265,591l-4.78,0,.09-22.39,5.85,0c4.43,0,6.48,2.63,6.46,8.23l0,5.78C272.58,588.35,270.17,591,265,591Zm-3.77-1H265c4.6,0,6.57-2.19,6.59-7.39l0-5.78c0-5.11-1.56-7.21-5.46-7.22l-4.85,0Z" transform="translate(-112.18 -286.51)"/><path class="cls-1" d="M322.71,558.62l15.94.06,11.9,74.94-11.77,0L336.7,618.7v.21l-13.37,0-2.2,14.65-10.91,0Zm12.64,50.12-5.1-37H330l-5.28,37Z" transform="translate(-112.18 -286.51)"/><path class="cls-1" d="M351.14,634.13l-12.79,0-2.05-14.67-12.54,0L321.56,634l-11.93,0,12.65-75.84,16.79.06Zm-11.92-1,10.75,0-11.75-73.94-15.09-.06L310.81,633l9.89,0,2.2-14.65,13.8,0v.25l.5,0Zm-3.3-23.84-11.74,0,5.42-38h1.09Zm-10.59-1,9.45,0-4.64-33.7Z" transform="translate(-112.18 -286.51)"/><path class="cls-1" d="M377.92,558.83l17.33.07c11.77.05,17.52,6.59,17.47,18.58l0,7.38c-.05,12-5.85,18.49-17.62,18.44l-5.57,0-.12,30.49-11.77,0Zm17.2,33.77c3.74,0,5.78-1.69,5.8-7l0-8.88c0-5.35-2-7.07-5.75-7.08l-5.57,0-.09,23Z" transform="translate(-112.18 -286.51)"/><path class="cls-1" d="M389.89,634.28l-12.77,0,.3-75.9,17.83.07c11.81.05,18,6.64,18,19.08l0,7.38c-.05,12.44-6.32,19-18.13,18.94l-5.06,0Zm-11.76-1,10.77,0,.11-30.49,6.07,0c11.31.05,17.07-6,17.12-17.94l0-7.38c0-12-5.66-18-17-18.08l-16.84-.07Zm17-40.13-6.07,0,.1-24,6.06,0c4.34,0,6.27,2.36,6.25,7.59l0,8.88C401.4,590.8,399.46,593.12,395.12,593.1Zm-5.06-1,5.06,0c3.17,0,5.28-1.09,5.3-6.54l0-8.88c0-5.44-2.09-6.57-5.25-6.58l-5.07,0Z" transform="translate(-112.18 -286.51)"/><path class="cls-1" d="M440.62,559.08l11.77,0-.12,30.5,12.62,0,.12-30.49,11.77.05-.29,74.89-11.77,0,.13-33.71-12.62-.05L452.1,634l-11.77,0Z" transform="translate(-112.18 -286.51)"/><path class="cls-1" d="M477,634.61l-12.77-.05.13-33.7-11.63,0-.13,33.7-12.77,0,.3-75.9,12.77,0-.12,30.5,11.62,0,.12-30.49,12.77.05Zm-11.77-1,10.77,0,.29-73.9-10.77,0-.12,30.5-13.62-.06.11-30.49-10.77,0-.28,73.89,10.77,0,.13-33.71,13.62.06Z" transform="translate(-112.18 -286.51)"/><path class="cls-1" d="M505.88,616.46l.15-39.37c.05-12,6.39-18.81,17.94-18.76s17.84,6.92,17.8,18.9l-.16,39.37c0,12-6.38,18.81-17.94,18.77S505.83,628.45,505.88,616.46Zm24,.85.16-40.87c0-5.35-2.33-7.4-6.07-7.41s-6.11,2-6.13,7.36l-.16,40.87c0,5.35,2.33,7.39,6.07,7.41S529.82,622.66,529.84,617.31Z" transform="translate(-112.18 -286.51)"/><path class="cls-1" d="M523.67,635.87c-11.67,0-18.34-7.12-18.29-19.41l.15-39.37c.05-12.29,6.77-19.31,18.44-19.26s18.34,7.12,18.3,19.4l-.16,39.38C542.07,628.89,535.34,635.91,523.67,635.87Zm.3-77c-11.2,0-17.39,6.44-17.44,18.26l-.15,39.38c-.05,11.82,6.09,18.35,17.29,18.4s17.4-6.45,17.44-18.27l.16-39.37C541.31,565.41,535.17,558.87,524,558.83Zm-.26,66.34c-4.38,0-6.59-2.68-6.57-7.91l.16-40.87c0-5.23,2.25-7.88,6.63-7.86s6.59,2.68,6.57,7.91l-.16,40.87C530.32,622.54,528.09,625.18,523.71,625.17Zm.22-55.64c-3.82,0-5.61,2.16-5.63,6.86l-.16,40.87c0,4.7,1.76,6.89,5.58,6.91s5.6-2.17,5.62-6.86l.16-40.88C529.52,571.74,527.75,569.54,523.93,569.53Z" transform="translate(-112.18 -286.51)"/><path class="cls-1" d="M571.15,559.58l11.77,0-.25,64.2,19.37.07,0,10.7-31.14-.12Z" transform="translate(-112.18 -286.51)"/><path class="cls-1" d="M602.5,635.1,570.36,635l.3-75.9,12.77,0-.25,64.2,19.36.07ZM571.37,634l30.13.12,0-9.7-19.37-.08.25-64.19-10.77,0Z" transform="translate(-112.18 -286.51)"/><path class="cls-1" d="M630.18,570.51l-12.31,0,0-10.7,36.38.15,0,10.69-12.3,0-.25,64.19-11.77,0Z" transform="translate(-112.18 -286.51)"/><path class="cls-1" d="M642.19,635.26l-12.77,0,.25-64.2-12.3,0,0-11.7,37.37.15,0,11.7-12.31-.05Zm-11.76-1,10.77,0,.25-64.19,12.3,0,0-9.7-35.38-.13,0,9.7,12.31,0Z" transform="translate(-112.18 -286.51)"/><rect class="cls-1" x="1.5" y="307.27" width="84.62" height="3"/><rect class="cls-1" x="478.74" y="861.03" width="3" height="35.46" transform="translate(-302.13 -151.85) rotate(-13.35)"/><rect class="cls-1" x="704.39" y="634.36" width="3" height="35.46" transform="translate(-196.83 911.97) rotate(-77.38)"/><path class="cls-1" d="M420.94,904a307.83,307.83,0,1,1,120.89-24.56A306.74,306.74,0,0,1,420.94,904Zm0-614.53a305.74,305.74,0,1,0,216.22,89.55A303.79,303.79,0,0,0,420.94,289.51Z" transform="translate(-112.18 -286.51)"/><line class="cls-1" x1="486.88" y1="273.73" x2="419.54" y2="288.19"/><rect class="cls-1" x="530.95" y="565.97" width="68.88" height="3" transform="translate(-218.87 -154.91) rotate(-12.14)"/></svg>